<svg xmlns="http://www.w3.org/2000/svg" width="1200" height="800" viewBox="0 0 1200 800" role="img" aria-labelledby="title desc">
  <title id="title">Control tier placeholder image</title>
  <desc id="desc">Abstract clipboard and scheduling bars.</desc>
  <defs>
    <linearGradient id="g2" x1="0" y1="0" x2="1" y2="1">
      <stop offset="0%" stop-color="#232831" />
      <stop offset="100%" stop-color="#1a1e25" />
    </linearGradient>
  </defs>
  <rect width="1200" height="800" fill="url(#g2)" />
  <rect x="220" y="90" width="760" height="620" rx="20" fill="#11151b" stroke="#5f6a7b" stroke-width="3" />
  <rect x="470" y="120" width="260" height="26" rx="10" fill="#6e42ff" />
  <g fill="#5f6a7b">
    <rect x="290" y="210" width="110" height="14" rx="7" />
    <rect x="290" y="300" width="110" height="14" rx="7" />
    <rect x="290" y="390" width="110" height="14" rx="7" />
    <rect x="290" y="480" width="110" height="14" rx="7" />
    <rect x="290" y="570" width="110" height="14" rx="7" />
  </g>
  <g>
    <rect x="430" y="200" width="470" height="36" rx="10" fill="#f1b44c" opacity="0.95" />
    <rect x="430" y="290" width="410" height="36" rx="10" fill="#6e42ff" opacity="0.8" />
    <rect x="430" y="380" width="500" height="36" rx="10" fill="#8793a5" opacity="0.8" />
    <rect x="430" y="470" width="360" height="36" rx="10" fill="#6e42ff" opacity="0.8" />
    <rect x="430" y="560" width="450" height="36" rx="10" fill="#8793a5" opacity="0.8" />
  </g>
</svg>
