<svg xmlns="http://www.w3.org/2000/svg" width="1200" height="800" viewBox="0 0 1200 800" role="img" aria-labelledby="title desc">
  <title id="title">Core tier placeholder image</title>
  <desc id="desc">Abstract industrial panel and plan markings.</desc>
  <defs>
    <linearGradient id="g1" x1="0" y1="0" x2="1" y2="1">
      <stop offset="0%" stop-color="#1c1f26" />
      <stop offset="100%" stop-color="#2b3039" />
    </linearGradient>
  </defs>
  <rect width="1200" height="800" fill="url(#g1)" />
  <g stroke="#4d5563" stroke-width="1" opacity="0.35">
    <path d="M0 80h1200M0 160h1200M0 240h1200M0 320h1200M0 400h1200M0 480h1200M0 560h1200M0 640h1200M0 720h1200" />
    <path d="M120 0v800M240 0v800M360 0v800M480 0v800M600 0v800M720 0v800M840 0v800M960 0v800M1080 0v800" />
  </g>
  <rect x="120" y="130" width="960" height="540" rx="16" fill="#13171d" stroke="#6e42ff" stroke-width="3" />
  <rect x="180" y="190" width="400" height="28" rx="8" fill="#f1b44c" opacity="0.95" />
  <rect x="180" y="250" width="820" height="18" rx="8" fill="#6f7a8b" />
  <rect x="180" y="290" width="760" height="18" rx="8" fill="#6f7a8b" />
  <rect x="180" y="330" width="820" height="18" rx="8" fill="#6f7a8b" />
  <circle cx="930" cy="500" r="90" fill="#6e42ff" opacity="0.25" />
  <circle cx="930" cy="500" r="58" fill="none" stroke="#f1b44c" stroke-width="4" />
</svg>
